<?xml version="1.0" encoding="utf-8"?>
<!-- Generator: Adobe Illustrator 27.1.1, SVG Export Plug-In . SVG Version: 6.00 Build 0)  -->
<svg version="1.1" id="Layer_2_00000024724721322699518200000011901158381267222916_"
	 xmlns="http://www.w3.org/2000/svg" xmlns:xlink="http://www.w3.org/1999/xlink" x="0px" y="0px" viewBox="0 0 394 82"
	 style="enable-background:new 0 0 394 82;" xml:space="preserve">
<style type="text/css">
	.st0{enable-background:new    ;}
	.st1{fill:#231F20;}
	.st2{fill:#F7CD01;}
	.st3{fill:#8669FB;}
	.st4{fill:#06CAAC;}
</style>
<g id="Layer_6">
	<g>
		<g>
			<g class="st0">
				<path class="st1" d="M64.1,70.6l-5.4-11H58v11h-9.7V41.1h12.6c6,0,10.2,4.1,10.2,9.6c0,2.7-1.2,5.2-3.3,6.8l7.1,13.1H64.1z
					 M59.6,48.8H58v4.2h1.6c1.1,0,2.3-0.7,2.3-2.1S60.7,48.8,59.6,48.8z"/>
			</g>
			<g class="st0">
				<path class="st1" d="M89.4,71.4c-8.4,0-16.1-6.1-16.1-15.5s7.7-15.5,16.1-15.5c8.4,0,16.1,6.1,16.1,15.5S97.8,71.4,89.4,71.4z
					 M89.4,49.1c-3.4,0-6.1,3.1-6.1,6.8s2.7,6.7,6.1,6.7c3.4,0,6.1-3,6.1-6.7S92.8,49.1,89.4,49.1z"/>
			</g>
			<g class="st0">
				<path class="st1" d="M125,70.6h-10.3L105,41.1h9.9l3.8,12c0.6,1.8,1.1,4.1,1.4,6h0.1c0.3-1.9,0.8-4.2,1.4-6l3.8-12h9.3L125,70.6
					z"/>
			</g>
			<g class="st0">
				<path class="st1" d="M135.1,70.6V41.1h9.8v29.4H135.1z"/>
				<path class="st1" d="M171.4,70.6l-9.4-10.2c-1.6-1.8-3.2-3.6-4.4-5.2l-0.1,0c0.1,1.5,0.2,3.5,0.2,5v10.3h-9.3V41.1h8.5l7.6,8.2
					c1.2,1.2,2.7,3,3.6,4.2l0.1,0c-0.1-1.3-0.2-2.6-0.2-4.1v-8.3h9.3v29.4H171.4z"/>
				<path class="st1" d="M196.7,71.4c-8.3,0-16.5-5.4-16.5-15.5c0-10.1,8.3-15.5,16.5-15.5c4.1,0,7.9,1.2,9.7,2.4l-1.9,7.9
					c-1.5-1-4.1-1.8-6.8-1.8c-5,0-7.8,3.4-7.8,7.4c0,3.4,2.5,6.9,7.2,6.9c0.7,0,1.2,0,1.8-0.2v-2.8h-3.4v-7.4h12.3v15.8
					C205.6,70.2,201.9,71.4,196.7,71.4z"/>
			</g>
			<g class="st0">
				<path class="st1" d="M236.9,46.2c-1.5-1-4.5-1.9-7.5-1.9c-6.1,0-12.1,4.1-12.1,11.7c0,7.4,5.9,11.7,12.1,11.7
					c3.4,0,5.8-0.7,7.7-1.8l-0.4,3.5c-1.8,1-4.1,1.5-7.7,1.5c-7.6,0-15.5-5.4-15.5-15c0-9.7,8-15,15.5-15c3.8,0,6.7,0.9,8.6,1.9
					L236.9,46.2z"/>
			</g>
			<g class="st0">
				<path class="st1" d="M256.1,71.1c-8,0-15.5-5.9-15.5-15.3c0-9.3,7.5-15.2,15.5-15.2c8,0,15.5,6,15.5,15.2
					C271.6,65.2,264.1,71.1,256.1,71.1z M256.1,44c-6,0-11.7,4.5-11.7,12c0,7.4,5.7,12,11.7,12c5.9,0,11.7-4.5,11.7-12
					C267.8,48.5,262,44,256.1,44z"/>
				<path class="st1" d="M301.5,71.1l-14.1-15.7c-2.3-2.5-4.9-5.7-7-8.1l-0.1,0c0.1,2.7,0.1,5.3,0.1,7.8v15.5h-3.8V41.1h2.6
					l13.2,14.7c1.8,2.1,4.6,5.1,6.4,7.5l0.1,0c-0.1-2.4-0.1-5-0.1-7.3V41.1h3.8v30H301.5z"/>
				<path class="st1" d="M317.2,70.6h-8.4V41.1h8.4c8.5,0,16.1,5.3,16.1,14.7S325.7,70.6,317.2,70.6z M316.5,44.4h-3.9v23h3.9
					c7.2,0,12.9-3.8,12.9-11.5C329.4,48.2,323.7,44.4,316.5,44.4z"/>
				<path class="st1" d="M352.6,71.1c-8,0-15.5-5.9-15.5-15.3c0-9.3,7.5-15.2,15.5-15.2c8,0,15.5,6,15.5,15.2
					C368.1,65.2,360.5,71.1,352.6,71.1z M352.6,44c-6,0-11.7,4.5-11.7,12c0,7.4,5.7,12,11.7,12c5.9,0,11.7-4.5,11.7-12
					C364.2,48.5,358.4,44,352.6,44z"/>
				<path class="st1" d="M389.6,70.6L381,57.4h-4.2v13.2H373V41.1h8.5c4.3,0,8.8,2.8,8.8,8.1c0,3.9-2.4,6.5-5.4,7.5l9.1,13.8H389.6z
					 M380.9,44.4h-4.1v9.8h4.2c2.9,0,5.5-1.6,5.5-4.8S383.8,44.4,380.9,44.4z"/>
			</g>
		</g>
		<g>
			<path class="st2" d="M27.4,4.1C34.1,3.2,42.1,8.9,42.7,15c0.7,6.1-5.2,28.5-20.3,47.7c-8.1-30.1-9.3-37-6.9-48.2
				C16.7,9,20.7,5,27.4,4.1L27.4,4.1z"/>
			<path class="st3" d="M53.6,6.2c-12.6-9.9-21.2,0-23.9,6.9c-4.1,10.8,1.8,25.1,4.3,28.7c4.7-5.7,8.9-12.2,8-20.5
				C41.2,13.1,44,6.4,53.6,6.2L53.6,6.2z"/>
			<path class="st4" d="M42.9,12.6c1.5-3.8,4.9-6.3,10.7-6.5c-7-5.5-12.8-4.9-17-2.1C39.2,6.3,41.4,9.2,42.9,12.6L42.9,12.6z"/>
			<path class="st1" d="M42.2,32.4c1.9-5.6,3-11.3,2.5-16.5c0-0.6-0.2-1.2-0.3-1.8c0.6-5.2,7.1-5.8,7.4-5.8l5-0.4l-3.4-3.7
				C49.7,0.3,44.1-1,38.7,0.8c-1.3,0.4-2.5,1-3.7,1.8c-2.3-1-4.8-1.4-7.4-1.1C19.7,2.1,14,8.9,13.3,18.2c-1,13.4,1.9,27.1,4.3,35.8
				c-3,2.2-11,7.6-17.6,8l0.2,4.8c7-0.4,14.8-5.1,18.8-7.9c0.8,2.6,1.5,4.2,1.5,4.5l1.5,3.9l2.6-3.3c0.5-0.6,7.1-9.1,12.6-20
				c11.4-14.7,22.3-12.6,22.8-12.5l0.5-2.3l0.5-2.3C60.7,26.7,52.3,24.9,42.2,32.4L42.2,32.4z M31.3,18.1c0.4-4,1.9-7.4,4.2-9.8
				c0.2,0.1,0.4,0.3,0.5,0.4c2.2,1.9,3.6,4.6,3.9,7.5c0.6,6.6-1.8,14.4-5,21.5C32.9,33.9,30.4,27,31.3,18.1L31.3,18.1z M45.8,5.1
				c-1.4,0.7-2.8,1.7-3.9,3.1c-0.7-0.9-1.4-1.8-2.3-2.6c0.2-0.1,0.4-0.2,0.6-0.2C42.1,4.7,44,4.6,45.8,5.1L45.8,5.1z M23.6,57.3
				c-2.4-7.5-6.7-23.6-5.6-38.8c0.4-5.3,3.2-11.7,10-12.3c0.3,0,0.6,0,1,0c0.6,0,1.3,0.1,1.9,0.2c-2.4,3-3.9,6.8-4.3,11.3
				c-1.4,12.9,3.7,22,5.8,25.3C29.3,48.9,25.9,54.1,23.6,57.3L23.6,57.3z"/>
		</g>
	</g>
</g>
</svg>
