<?xml version="1.0" encoding="utf-8"?>
<!-- Generator: Adobe Illustrator 27.2.0, SVG Export Plug-In . SVG Version: 6.00 Build 0)  -->
<svg version="1.1" id="Layer_2_00000024724721322699518200000011901158381267222916_"
	 xmlns="http://www.w3.org/2000/svg" xmlns:xlink="http://www.w3.org/1999/xlink" x="0px" y="0px" viewBox="0 0 66 71"
	 style="enable-background:new 0 0 66 71;" xml:space="preserve">
<style type="text/css">
	.st0{fill:#F7CD01;}
	.st1{fill:#8669FB;}
	.st2{fill:#06CAAC;}
	.st3{fill:#231F20;}
</style>
<g id="Layer_6">
	<g>
		<g>
			<path class="st0" d="M29.9,5.9c6.7-0.9,14.7,4.8,15.3,10.9c0.7,6.1-5.2,28.5-20.3,47.7c-8.1-30.1-9.3-37-6.9-48.2
				C19.2,10.8,23.2,6.8,29.9,5.9L29.9,5.9z"/>
			<path class="st1" d="M56.1,8c-12.6-9.9-21.2,0-23.9,6.9C28.1,25.7,34,40,36.5,43.6c4.7-5.7,8.9-12.2,8-20.5
				C43.7,14.9,46.5,8.2,56.1,8L56.1,8z"/>
			<path class="st2" d="M45.4,14.4c1.5-3.8,4.9-6.3,10.7-6.5c-7-5.5-12.8-4.9-17-2.1C41.7,8.1,43.9,11,45.4,14.4L45.4,14.4z"/>
			<path class="st3" d="M44.7,34.2c1.9-5.6,3-11.3,2.5-16.5c0-0.6-0.2-1.2-0.3-1.8c0.6-5.2,7.1-5.8,7.4-5.8l5-0.4L55.9,6
				c-3.7-3.9-9.3-5.2-14.7-3.4c-1.3,0.4-2.5,1-3.7,1.8c-2.3-1-4.8-1.4-7.4-1.1C22.2,3.9,16.5,10.7,15.8,20
				c-1,13.4,1.9,27.1,4.3,35.8c-3,2.2-11,7.6-17.6,8l0.2,4.8c7-0.4,14.8-5.1,18.8-7.9c0.8,2.6,1.5,4.2,1.5,4.5l1.5,3.9l2.6-3.3
				c0.5-0.6,7.1-9.1,12.6-20C51.1,31.1,62,33.2,62.5,33.3L63,31l0.5-2.3C63.2,28.5,54.8,26.7,44.7,34.2L44.7,34.2z M33.8,19.9
				c0.4-4,1.9-7.4,4.2-9.8c0.2,0.1,0.4,0.3,0.5,0.4c2.2,1.9,3.6,4.6,3.9,7.5c0.6,6.6-1.8,14.4-5,21.5C35.4,35.7,32.9,28.8,33.8,19.9
				L33.8,19.9z M48.3,6.9c-1.4,0.7-2.8,1.7-3.9,3.1c-0.7-0.9-1.4-1.8-2.3-2.6c0.2-0.1,0.4-0.2,0.6-0.2C44.6,6.5,46.5,6.4,48.3,6.9
				L48.3,6.9z M26.1,59.1c-2.4-7.5-6.7-23.6-5.6-38.8C20.9,15,23.7,8.6,30.5,8c0.3,0,0.6,0,1,0c0.6,0,1.3,0.1,1.9,0.2
				c-2.4,3-3.9,6.8-4.3,11.3c-1.4,12.9,3.7,22,5.8,25.3C31.8,50.7,28.4,55.9,26.1,59.1L26.1,59.1z"/>
		</g>
	</g>
</g>
</svg>
