<?xml version="1.0" encoding="utf-8"?>
<!-- Generator: Adobe Illustrator 27.2.0, SVG Export Plug-In . SVG Version: 6.00 Build 0)  -->
<svg version="1.1" id="Layer_1" xmlns="http://www.w3.org/2000/svg" xmlns:xlink="http://www.w3.org/1999/xlink" x="0px" y="0px"
	 viewBox="0 0 300 300" style="enable-background:new 0 0 300 300;" xml:space="preserve">
<style type="text/css">
	.st0{fill:#E6E6E6;}
	.st1{fill:#AB4A9C;}
	.st2{fill:#BED63A;}
	.st3{opacity:0.4;}
	.st4{fill:#FFFFFF;}
	.st5{opacity:0.4;fill:#FFFFFF;}
	.st6{clip-path:url(#SVGID_00000121247592585238793360000008172144113763301009_);fill:#101516;}
	.st7{clip-path:url(#SVGID_00000121247592585238793360000008172144113763301009_);fill:#ED5D80;}
	.st8{opacity:0.1;clip-path:url(#SVGID_00000121247592585238793360000008172144113763301009_);fill:#231F20;}
	.st9{clip-path:url(#SVGID_00000121247592585238793360000008172144113763301009_);}
	.st10{opacity:0.1;fill:#231F20;}
	.st11{fill:#756E90;}
	.st12{fill:#573D7C;}
	.st13{fill:#392268;}
</style>
<g>
	<ellipse class="st0" cx="149.9" cy="267.5" rx="124.5" ry="11.4"/>
	<g>
		<path class="st1" d="M70,59.2c2.1-1.8,4.4-3.4,6.7-4.8c1.7-1,3.4-1.9,5.2-2.7c-2.6-3.3-4.6-7.3-5.8-12
			C71.7,45.1,69.7,52.2,70,59.2z"/>
		<path class="st2" d="M70,59.2c0.1,2.9,0.6,5.8,1.5,8.6c1.2,4,3.1,7.8,5.5,11.2c0.2-1.4,0.5-2.8,0.9-4.2
			c1.8-6.6,6.5-12.2,12.4-15.6c-3.1-2-5.9-4.5-8.3-7.5c-1.8,0.8-3.5,1.7-5.2,2.7C74.3,55.8,72.1,57.4,70,59.2z"/>
		<path class="st1" d="M77,79L77,79c3.2,4.7,7.3,8.8,11.8,12.3c0.4,0.3,0.8,0.6,1.2,0.6c0.5,0,0.9-0.2,1.3-0.4
			c7.2-4.2,21.3-15.6,21-24.8c-8-1-15.8-3.3-22.1-7.4c-5.9,3.3-10.6,9-12.4,15.6C77.5,76.2,77.2,77.6,77,79z"/>
		<g>
			<path class="st1" d="M112.3,66.7c-6.2-0.7-12.2-2.3-17.6-4.9c-4.7,5.3-8.3,12.3-10,20.1c-0.4,1.7-0.7,3.5-0.9,5.2
				c1.6,1.5,3.2,2.9,4.9,4.2c0.4,0.3,0.8,0.6,1.2,0.6c0.5,0,0.9-0.2,1.3-0.4C98.5,87.3,112.6,75.9,112.3,66.7z"/>
		</g>
	</g>
	<g>
		<path class="st1" d="M242.4,59.2c-2.1-1.8-4.4-3.4-6.7-4.8c-1.7-1-3.4-1.9-5.2-2.7c2.6-3.3,4.6-7.3,5.8-12
			C240.7,45.1,242.6,52.2,242.4,59.2z"/>
		<path class="st2" d="M242.4,59.2c-0.1,2.9-0.6,5.8-1.5,8.6c-1.2,4-3.1,7.8-5.5,11.2c-0.2-1.4-0.5-2.8-0.9-4.2
			c-1.8-6.6-6.5-12.2-12.4-15.6c3.1-2,5.9-4.5,8.3-7.5c1.8,0.8,3.5,1.7,5.2,2.7C238,55.8,240.3,57.4,242.4,59.2z"/>
		<path class="st1" d="M235.4,79L235.4,79c-3.2,4.7-7.3,8.8-11.8,12.3c-0.4,0.3-0.8,0.6-1.2,0.6c-0.5,0-0.9-0.2-1.3-0.4
			c-7.2-4.2-21.3-15.6-21-24.8c8-1,15.8-3.3,22.1-7.4c5.9,3.3,10.6,9,12.4,15.6C234.9,76.2,235.2,77.6,235.4,79z"/>
		<g>
			<path class="st1" d="M200,66.7c6.2-0.7,12.2-2.3,17.6-4.9c4.7,5.3,8.3,12.3,10,20.1c0.4,1.7,0.7,3.5,0.9,5.2
				c-1.6,1.5-3.2,2.9-4.9,4.2c-0.4,0.3-0.8,0.6-1.2,0.6c-0.5,0-0.9-0.2-1.3-0.4C213.9,87.3,199.8,75.9,200,66.7z"/>
		</g>
	</g>
	<g>
		<path class="st1" d="M137.9,33.9c1.9-1.4,4.1-2.6,6.4-2.8s5,0.9,5.9,3.1c1.9,4.3-3.6,8.5-3.6,13.2c4.2-4.8,10.2-8,16.5-8.8
			c1.6-0.2,3.3-0.2,4.6,0.7c1.6,1.1,2.2,3.2,1.9,5.2c-0.3,1.9-1.3,3.6-2.2,5.3c3.7-1.1,7.6-2.2,11.3-1.4c3.8,0.8,7.3,4.1,6.9,7.9
			c-0.4,3.4-3.6,5.8-6.9,6.5c-3.3,0.7-6.7,0-10.1-0.4l0,0c-8.4-1.1-17.1-0.9-25.4,0.7c-4.7,0.9-14.3,5.4-18.9,1.9
			C115,57.8,131.8,38.3,137.9,33.9z"/>
		<g class="st3">
			<path class="st4" d="M145,34.5c-2.4,0.2-4.5,1.4-6.4,2.8c-4.8,3.4-16,16.1-16.3,24.8c-3.6-8.5,10.3-24.4,15.7-28.3
				c1.9-1.4,4.1-2.6,6.4-2.8c2.4-0.2,5,0.9,5.9,3.1c0.4,1,0.5,1.9,0.3,2.9C149.5,35.2,147.1,34.3,145,34.5z"/>
			<path class="st4" d="M168.4,42.7c-1.3-0.9-3-0.9-4.6-0.7c-6.3,0.7-14.7,5.4-18.9,10.3c0.4-1.3,1-3.3,1.8-4.9
				c5.1-6.1,11.5-8.2,16.5-8.8c1.6-0.2,3.3-0.2,4.6,0.7c1.6,1,2.1,3.1,1.9,5C169.4,43.6,169,43.1,168.4,42.7z"/>
			<path class="st4" d="M185.7,56.3c0,0.1,0,0.1,0,0.2c-1.1-2.3-3.7-4.1-6.3-4.7c-3.8-0.8-11.5,1.4-15.2,2.4
				c0.9-1.5,1.7-2.7,3.2-4.5c4.6-1.6,8.4-2,11.3-1.4C182.6,49.1,186.1,52.4,185.7,56.3z"/>
		</g>
	</g>
	<path class="st1" d="M42.8,214.4c11-33.2,9.8-69.7,24.6-101.7c16.3-35.3,56.4-61.2,95.5-58.6c47.6,3.2,82.2,44.5,81.8,91.4
		c-0.1,14.2-1.7,28.8,1.6,42.8c2.1,8.8,6.2,16.6,11.9,23.5c3.3,4,6.6,8.2,7.7,13.2c2.1,9.7-7.1,16.7-15.5,18.9
		c-10.2,2.6-21.4,0.8-30.2-5c-16.3,17.4-46.2,19.5-64.7,4.6c-21.1,14.2-51.4,12.9-71.1-3.1c-9.7,8.6-24.4,7.4-37.2,5.3
		c-7.1-1.2-16.5-4.3-14.6-13.5C33.9,226,40.7,220.9,42.8,214.4z"/>
	<path class="st5" d="M153.2,59.1c-14.8,0.1-25.9,2.6-38.7,7.8C75,83,59.6,127.2,54.2,168.2c5.2-19.1,5.6-29.1,17-53.2
		C78.7,99.1,94,80.5,110,72.1C125.9,63.6,136.8,60.4,153.2,59.1z"/>
	<g>
		<path class="st1" d="M250.5,243.9c-10.2,2.6-21.4,0.8-30.2-5c-16.3,17.4-46.2,19.5-64.7,4.6c-21.1,14.2-51.4,12.9-71.1-3.1
			c-9.7,8.6-24.4,7.4-37.2,5.3c-5.5-0.9-12.4-3-14.3-8.1c16,3.8,33.3,2.4,48.3-4.3c2.9-1.3,5.9-2.8,9-2.4c2.3,0.3,4.3,1.5,6.2,2.6
			c7.5,4.1,15.9,6.3,24.4,6.6c6.2,0.2,12.5-0.7,18.3-2.9c2.3-0.9,4.6-2,7.1-2.5c3.2-0.6,6.5,0,9.7,0.2c18.6,1.2,37.3-10.7,44.2-28
			c9.1-1.6,16-9.1,20.7-16.9c8.7-14.5,12.2-31.7,11.4-48.6c-1.1-23.1-10.3-45.7-25.7-63C199,69.7,190,62.5,180.2,57
			c38.5,10.7,64.9,47.4,64.6,88.4c-0.1,14.2-1.7,28.8,1.6,42.8c2.1,8.8,6.2,16.6,11.9,23.5c3.3,4,6.6,8.2,7.7,13.2
			C268.1,234.7,258.9,241.7,250.5,243.9z"/>
	</g>
	<g>
		<g>
			<defs>
				<path id="SVGID_1_" d="M197.6,148.3c0,33.4-21.2,50.7-47.4,50.7c-26.2,0-47.4-17.3-47.4-50.7s21.2-8.6,47.4-8.6
					C176.4,139.7,197.6,114.9,197.6,148.3z"/>
			</defs>
			<use xlink:href="#SVGID_1_"  style="overflow:visible;fill:#171F21;"/>
			<clipPath id="SVGID_00000003072069527000575340000004396296135137671343_">
				<use xlink:href="#SVGID_1_"  style="overflow:visible;"/>
			</clipPath>
			<path style="clip-path:url(#SVGID_00000003072069527000575340000004396296135137671343_);fill:#101516;" d="M188.8,180.2
				c-4.4-8.5-10.8-16-18.9-21.1c-21.3-13.4-45.8-5.5-54.8,17.7c-1.5,3.8-2.4,7.7-2.9,11.7c3.1,2.7,6.4,5.2,10,7.5
				C147.6,212.1,174.6,209.4,188.8,180.2z"/>
			<path style="clip-path:url(#SVGID_00000003072069527000575340000004396296135137671343_);fill:#ED5D80;" d="M149.2,175.8
				c-0.6,0.4-1.2,0.9-1.9,0.8c-0.7,0-1.2-0.5-1.7-0.9c-5.2-4.2-12.1-6-18.6-5c-6.5,1-12.6,4.9-16.2,10.4c-0.4,0.6-0.8,1.2-0.8,1.9
				c-0.1,0.8,0.3,1.5,0.7,2.2c3.1,5.2,8.6,8.5,14.1,10.7c11.7,4.7,24.6,6,37.2,4.9h0c9.4-0.8,37.7-5.6,26.4-20.3
				C179.3,168.7,161,167.3,149.2,175.8z"/>
			<path style="opacity:0.1;clip-path:url(#SVGID_00000003072069527000575340000004396296135137671343_);fill:#231F20;" d="
				M190.5,177.9c-2.7-4.4-6.3-7.9-10.5-10.2c0,0.2,0,0.3,0,0.5c0,12-5.3,22.6-13.4,28.8C176.5,193.7,185,187.3,190.5,177.9z"/>
			<g style="clip-path:url(#SVGID_00000003072069527000575340000004396296135137671343_);">
				<path class="st4" d="M184.1,171.8c-0.7,2.1,1.1,10.1,2.6,15.9c3.3-3.5,6.1-7.5,8.3-11.9C190.3,172.9,184.7,169.9,184.1,171.8z"
					/>
				<path class="st10" d="M186.6,187.8c0.7-0.7,1.4-1.5,2-2.3c-1.8-3.7-3.9-8.6-4.6-13.3C183.5,174.8,185.2,182.2,186.6,187.8z"/>
			</g>
			<g style="clip-path:url(#SVGID_00000003072069527000575340000004396296135137671343_);">
				<path class="st4" d="M133,135c1.7,7,4.6,16.8,7,16.1c2.1-0.7,4-7.3,5.2-12.7C140.9,138,136.8,136.8,133,135z"/>
				<path class="st10" d="M145.2,138.3c-1.3-0.1-2.6-0.3-3.8-0.6c0.6,2.7,1.1,7-0.4,12.5C142.7,148.3,144.2,142.9,145.2,138.3z"/>
			</g>
			<g style="clip-path:url(#SVGID_00000003072069527000575340000004396296135137671343_);">
				<path class="st4" d="M112.1,127.9c2,10.1,5.5,24.3,9,23.6c3-0.7,6-9.7,8.1-17.4C123.1,133,117.4,130.9,112.1,127.9z"/>
				<path class="st10" d="M129.2,134.1c-1.8-0.3-3.6-0.8-5.4-1.3c0.8,3.8,1.2,10-1.2,17.7C125,147.9,127.4,140.5,129.2,134.1z"/>
			</g>
			<g style="clip-path:url(#SVGID_00000003072069527000575340000004396296135137671343_);">
				<path class="st4" d="M156.8,138.4c1.2,6.1,3,13.2,5.1,12.5c2.1-0.7,6-9.6,8.9-17C166.4,136.3,161.7,137.9,156.8,138.4z"/>
				<path class="st10" d="M160.3,150c-0.8-2.1-1.5-5.7-0.9-12c-0.9,0.2-1.7,0.3-2.6,0.4C157.6,142.9,158.8,147.9,160.3,150z"/>
			</g>
			<g style="clip-path:url(#SVGID_00000003072069527000575340000004396296135137671343_);">
				<path class="st4" d="M174.6,131.1c1.5,7.9,3.9,17.1,6.6,16.2c2.7-0.9,7.8-12.5,11.5-22.1C187.2,128.4,181,130.4,174.6,131.1z"/>
				<path class="st10" d="M179.2,146.2c-1.1-2.7-1.9-7.4-1.1-15.6c-1.1,0.2-2.3,0.4-3.4,0.5C175.7,136.9,177.3,143.5,179.2,146.2z"
					/>
			</g>
			<g style="clip-path:url(#SVGID_00000003072069527000575340000004396296135137671343_);">
				<path class="st4" d="M117.2,188.1c0.7-7.3,1.1-17.6-2.3-15.6c-2.2,1.3-4.5,3.4-6.3,5.4C111,181.6,113.9,185.1,117.2,188.1z"/>
				<path class="st10" d="M117,173.3c0.2,2.8,0.2,7.8-1.3,13.3c0.5,0.5,1,1,1.5,1.5C117.7,182.8,118.1,175.9,117,173.3z"/>
			</g>
			<path style="clip-path:url(#SVGID_00000003072069527000575340000004396296135137671343_);fill:#ED5D80;" d="M142.2-190.5
				c-0.6,0.4-1.2,0.9-1.9,0.8c-0.7,0-1.2-0.5-1.7-0.9c-5.2-4.2-12.1-6-18.6-5c-6.5,1-12.6,4.9-16.2,10.4c-0.4,0.6-0.8,1.2-0.8,1.9
				c-0.1,0.8,0.3,1.5,0.7,2.2c3.1,5.2,8.6,8.5,14.1,10.7c11.7,4.7,24.6,6,37.2,4.9c0,0,0,0,0,0c9.4-0.8,37.7-5.6,26.4-20.3
				C172.2-197.6,153.9-199,142.2-190.5z"/>
		</g>
	</g>
	<g>
		<g>
			<ellipse class="st4" cx="149.7" cy="107.6" rx="26.5" ry="28.9"/>
			<path class="st0" d="M149.7,130.6c-13.7,0-25-11.4-26.4-25.9c-0.1,1-0.1,1.9-0.1,2.9c0,15.9,11.9,28.9,26.5,28.9
				c14.7,0,26.5-12.9,26.5-28.9c0-1,0-2-0.1-2.9C174.7,119.2,163.4,130.6,149.7,130.6z"/>
		</g>
		<g>
			<circle class="st11" cx="150.3" cy="111.1" r="16.2"/>
			<circle class="st12" cx="150.3" cy="111.1" r="10.8"/>
			
				<ellipse transform="matrix(0.5197 -0.8544 0.8544 0.5197 -22.6756 181.7752)" class="st13" cx="150.3" cy="111.1" rx="8.5" ry="8.5"/>
			<circle cx="150.3" cy="111.1" r="5.9"/>
			<path class="st4" d="M163.3,109.9c-1.5-1.5-4-1.5-5.6,0c-1.5,1.5-1.5,4,0,5.6c1.5,1.5,4,1.5,5.6,0
				C164.9,113.9,164.9,111.4,163.3,109.9z"/>
			<path class="st4" d="M158,119.4c-0.9-0.9-2.4-0.9-3.3,0c-0.9,0.9-0.9,2.4,0,3.3c0.9,0.9,2.4,0.9,3.3,0
				C158.9,121.8,158.9,120.3,158,119.4z"/>
		</g>
	</g>
	<g>
		<path class="st1" d="M175.4,201.7c0,0-16.1,6.6-25.9,6.4c-9.8-0.3-26-6.4-26-6.4s13.8,10.4,26,10.4
			C161.6,212.1,175.4,201.7,175.4,201.7z"/>
	</g>
	<g>
		<line class="st1" x1="180.2" y1="57" x2="180.2" y2="57"/>
	</g>
	<g>
		
			<ellipse transform="matrix(6.554396e-02 -0.9978 0.9978 6.554396e-02 29.0832 358.5222)" class="st1" cx="206" cy="163.7" rx="10.1" ry="7.5"/>
		<path class="st1" d="M225.5,185.5c-1.5,5.2-0.1,10.1,3.2,11.1c3.3,1,7.2-2.4,8.8-7.5c1.5-5.2,0.1-10.1-3.2-11.1
			C231,176.9,227.1,180.3,225.5,185.5z"/>
		
			<ellipse transform="matrix(0.8303 -0.5573 0.5573 0.8303 -96.6239 143.0854)" class="st1" cx="186.7" cy="230.2" rx="9.4" ry="6.5"/>
		<path class="st1" d="M143.4,225.7c-3.2,2.1-4.4,5.9-2.7,8.4c1.7,2.5,5.6,2.8,8.8,0.7c3.2-2.1,4.4-5.9,2.7-8.4
			C150.5,223.9,146.6,223.5,143.4,225.7z"/>
		<path class="st1" d="M199.4,188c-1,3.2,0.3,6.4,2.8,7.1c2.5,0.7,5.3-1.2,6.3-4.4s-0.3-6.4-2.8-7.1
			C203.1,182.8,200.3,184.8,199.4,188z"/>
		<path class="st1" d="M226.4,137.2c-0.5,3.3,1.2,6.3,3.8,6.6c2.6,0.4,5.1-2,5.5-5.3c0.5-3.3-1.2-6.3-3.8-6.6
			C229.4,131.5,226.9,133.9,226.4,137.2z"/>
		<path class="st1" d="M180.8,201.2c2.5,1.7,6.2,0.7,8.2-2.3c2-3,1.6-6.7-0.9-8.4c-2.5-1.7-6.2-0.7-8.2,2.3S178.3,199.5,180.8,201.2
			z"/>
	</g>
</g>
</svg>
